<svg id="SPACETIMEQ" xmlns="http://www.w3.org/2000/svg" viewBox="0 0 1800.61 300.83"><defs><style>.cls-1{fill:#c1272d;stroke:#c1272d;}.cls-1,.cls-2,.cls-3{stroke-miterlimit:10;}.cls-2{fill:#006837;stroke:#006837;}.cls-3{fill:#2e3192;stroke:#2e3192;}</style></defs><title>SPACETIMEQ-Logo-Vectorized20191015</title><g id="Q"><path class="cls-1" d="M1702.28,359.31h86.87V269.5c0-3.5,0-3.5-3.65-3.5h-75.75V249.46h96V376H1685.58V118.23h120.16V244.8h-96V228.33H1789c.08-1.14.2-2.05.2-3q0-43.83,0-87.64c0-2.3-.64-3-3-3q-40.54.1-81.08,0c-2.48,0-3.06.81-3.05,3.15q.08,109.29,0,218.58C1702.15,357.32,1702.23,358.18,1702.28,359.31Z" transform="translate(-105.89 -96.69)"/><path class="cls-1" d="M1664.55,397V97.19h162.26v131H1889V359.39h17V376h-33.72V245.15h-62c-.07-1.55-.17-2.74-.17-3.92V117.64c0-3.83,0-3.84-3.85-3.84H1685.07c-3.91,0-3.91,0-3.91,3.77V380.3H1810V249.47h57.89V380.33H1906V397h-54.73V266.18h-24.32V397Z" transform="translate(-105.89 -96.69)"/></g><g id="TIME"><path class="cls-2" d="M1567,315.74h-16.47c-.06-1.22-.15-2.32-.15-3.42,0-17.84-.07-35.68.06-53.52,0-2.71-.79-3.37-3.41-3.34-13,.12-26.06,0-39.09,0h-3V369.73h107.5V309.79H1629v76.66H1488.13V107.76H1629v76.67h-16.43V124.56H1504.8v114h45.52V178.53H1567Z" transform="translate(-105.89 -96.69)"/><path class="cls-2" d="M1425.44,124.31h-42.11c-3.39,0-3.4,0-3.4,3.49V315.62h-16.79V124.49H1318V369.91h27.13v16.6h-134V370h27.47v-3.37q0-119.52.05-239c0-2.67-.72-3.43-3.38-3.36-7.08.18-14.16.07-21.25.06-.93,0-1.87-.08-2.93-.13V107.69h71.53v16.56h-27.07v245.5H1301v-262h141.34V369.89h27.53v16.64h-71.53V370h27.07Z" transform="translate(-105.89 -96.69)"/><path class="cls-2" d="M1192.92,184.54H1176.4V124.47c-1.2-.06-2.13-.15-3.07-.15-13.2,0-26.41.05-39.62-.06-2.38,0-3.12.64-3.11,3.08q.09,119.78.05,239.56c0,.93.09,1.87.14,3h27.33v16.57h-71.45V370h27V124.5h-45.07v60H1052V107.73h140.93Z" transform="translate(-105.89 -96.69)"/></g><g id="SPACE"><path class="cls-3" d="M927.19,255.65c-1.32-.07-2.18-.17-3-.17-13.3,0-26.59.05-39.88,0-2.28,0-3,.62-3,2.95q.11,54.45.05,108.9c0,.77.1,1.54.17,2.49H989.32v-60h16.6v76.69H864.75V107.79h141.14V184.4H989.52c0-1.11-.14-2.21-.14-3.31,0-17.85-.07-35.69,0-53.53,0-2.72-.83-3.34-3.42-3.34q-50.64.12-101.29.06c-3.39,0-3.39,0-3.39,3.5q0,53.79,0,107.58v3.24H927v-60h16.51v137H927.19Z" transform="translate(-105.89 -96.69)"/><path class="cls-3" d="M678,107.69H819.06V184.4H802.69c-.05-1.11-.15-2.21-.15-3.31,0-17.84-.06-35.68.06-53.52,0-2.71-.8-3.36-3.42-3.35q-50.62.12-101.27.06c-3.41,0-3.42,0-3.42,3.49v242H802.42v-60H819.1v76.71H678Z" transform="translate(-105.89 -96.69)"/><path class="cls-3" d="M588.14,370h27V255.66H507.69V369.87h27.05v16.6H463.3V370h27.46V107.74H632V369.85h27.52v16.58H588.14ZM615.2,124.48H507.72V238.6H615.2Z" transform="translate(-105.89 -96.69)"/><path class="cls-3" d="M303.84,107.7H445V255.5H320.81V369.86h27v16.56H276.43V370.07h27.41ZM428.32,238.64V124.54H320.85v114.1Z" transform="translate(-105.89 -96.69)"/><path class="cls-3" d="M106.39,397V309.82h16.52V380.3H251.84c.06-.93.17-1.85.17-2.77q0-64.68.05-129.36c0-2.53-.72-3.24-3.24-3.24q-58.78.1-117.56,0h-3.82V118.24H247.59v66.21H231v-3.22c0-14.44-.06-28.87.06-43.3,0-2.57-.8-3.22-3.28-3.21q-40.28.12-80.56,0c-2.42,0-3.33.52-3.33,3.16.09,29.13.06,58.25.06,87.38,0,.86.08,1.72.14,2.91H268.57V397Z" transform="translate(-105.89 -96.69)"/><path class="cls-3" d="M127.39,309.73h16.5v49.74h3.21c26.94,0,53.88,0,80.82.06,2.59,0,3.16-.77,3.15-3.24q-.12-43.56,0-87.12c0-2.52-.69-3.25-3.23-3.25q-58.78.12-117.56.05h-3.82V97.25H268.57v87.2H252V117.21c0-3.42,0-3.43-3.47-3.43q-61.14,0-122.28-.06c-2.71,0-3.34.81-3.34,3.42Q123,181.55,123,246v3.18H247.57V376H127.39Z" transform="translate(-105.89 -96.69)"/></g></svg>